# 3ds Max Wavefront OBJ Exporter v0.97b - (c)2007 guruware
# File Created: 23.10.2019 23:10:40

mtllib eyeBrowLeft.mtl

#
# object Object01
#

v  0.0000 4.8860 -5.3853
v  0.0000 6.5454 -5.0273
v  1.3956 5.0120 -5.3160
v  1.6195 6.5992 -4.9211
v  1.2209 4.1422 -5.1060
v  0.7664 3.1821 -4.8615
v  0.0000 4.0190 -5.2848
v  1.7554 3.5291 -4.3277
v  3.3881 3.7220 -4.3090
v  3.7350 4.5082 -4.5505
v  4.0758 3.6754 -4.0761
v  4.5886 4.3020 -4.0485
v  3.9866 5.1095 -4.4663
v  4.9859 4.8025 -3.7520
v  5.2533 3.8816 -3.3632
v  5.7210 4.2546 -2.8309
v  5.5877 3.2081 -2.6878
v  6.1300 3.3993 -2.0385
v  4.6229 3.4747 -3.6463
v  4.9886 3.0747 -3.0839
v  2.7603 5.1010 -5.0160
v  3.0639 6.5661 -4.5300
v  4.5386 6.3199 -3.6834
v  2.6445 4.5247 -4.9216
v  5.5998 5.7155 -2.7243
v  2.6326 3.7138 -4.3646
v  6.3744 4.7856 -1.5917
v  6.8473 3.6629 -0.7247
# 28 vertices

vn 0.0802 0.0113 -0.9967
vn 0.0440 0.2234 -0.9737
vn 0.1304 -0.0146 -0.9914
vn 0.1535 0.2353 -0.9597
vn 0.2311 -0.3664 -0.9013
vn 0.3556 -0.3853 -0.8515
vn 0.1611 -0.1927 -0.9679
vn 0.2766 -0.6535 -0.7046
vn 0.1548 -0.3518 -0.9232
vn 0.3655 -0.2362 -0.9003
vn 0.4052 -0.3561 -0.8420
vn 0.5562 -0.1832 -0.8106
vn 0.5033 0.1079 -0.8574
vn 0.7010 0.0762 -0.7090
vn 0.6895 -0.2395 -0.6835
vn 0.8286 -0.0221 -0.5594
vn 0.7245 -0.2647 -0.6364
vn 0.8555 -0.0596 -0.5144
vn 0.5498 -0.3801 -0.7438
vn 0.5727 -0.4295 -0.6982
vn 0.2990 0.0260 -0.9539
vn 0.3755 0.2562 -0.8907
vn 0.6161 0.2539 -0.7457
vn 0.2600 -0.3736 -0.8904
vn 0.7985 0.1582 -0.5808
vn 0.1979 -0.5532 -0.8092
vn 0.8754 0.0339 -0.4822
vn 0.8778 -0.0003 -0.4791
# 28 vertex normals

vt 0.0413 0.3142 0.0000
vt -0.0083 0.7925 0.0000
vt 0.2100 0.3894 0.0000
vt 0.2109 0.9609 0.0000
vt 0.2123 0.1002 0.0000
vt 0.1671 -0.0865 0.0000
vt 0.0615 -0.0080 0.0000
vt 0.2586 0.0247 0.0000
vt 0.5159 0.1854 0.0000
vt 0.5205 0.2615 0.0000
vt 0.5889 0.2006 0.0000
vt 0.6162 0.2769 0.0000
vt 0.6055 0.5156 0.0000
vt 0.7777 0.3766 0.0000
vt 0.7339 0.2769 0.0000
vt 0.8290 0.2914 0.0000
vt 0.8088 0.1606 0.0000
vt 0.8563 0.1688 0.0000
vt 0.6688 0.2043 0.0000
vt 0.7512 0.1459 0.0000
vt 0.3984 0.4531 0.0000
vt 0.5117 1.1055 0.0000
vt 0.6884 0.9952 0.0000
vt 0.3394 0.1584 0.0000
vt 0.8611 0.7030 0.0000
vt 0.3753 0.0949 0.0000
vt 0.9533 0.4312 0.0000
vt 0.9909 0.1743 0.0000
# 28 texture coords

g Object01
usemtl 04___Default
s 1
f 1/1/1 2/2/2 3/3/3 
f 4/4/4 3/3/3 2/2/2 
f 5/5/5 6/6/6 7/7/7 
f 5/5/5 8/8/8 6/6/6 
f 9/9/9 10/10/10 11/11/11 
f 12/12/12 11/11/11 10/10/10 
f 10/10/10 13/13/13 12/12/12 
f 14/14/14 12/12/12 13/13/13 
f 15/15/15 16/16/16 17/17/17 
f 18/18/18 17/17/17 16/16/16 
f 12/12/12 14/14/14 15/15/15 
f 16/16/16 15/15/15 14/14/14 
f 19/19/19 15/15/15 20/20/20 
f 17/17/17 20/20/20 15/15/15 
f 21/21/21 22/22/22 13/13/13 
f 23/23/23 13/13/13 22/22/22 
f 5/5/5 3/3/3 24/24/24 
f 21/21/21 24/24/24 3/3/3 
f 13/13/13 23/23/23 14/14/14 
f 25/25/25 14/14/14 23/23/23 
f 7/7/7 1/1/1 5/5/5 
f 3/3/3 5/5/5 1/1/1 
f 11/11/11 12/12/12 19/19/19 
f 15/15/15 19/19/19 12/12/12 
f 24/24/24 21/21/21 10/10/10 
f 13/13/13 10/10/10 21/21/21 
f 3/3/3 4/4/4 21/21/21 
f 22/22/22 21/21/21 4/4/4 
f 24/24/24 10/10/10 26/26/26 
f 9/9/9 26/26/26 10/10/10 
f 24/24/24 26/26/26 5/5/5 
f 8/8/8 5/5/5 26/26/26 
f 16/16/16 27/27/27 18/18/18 
f 28/28/28 18/18/18 27/27/27 
f 14/14/14 25/25/25 16/16/16 
f 27/27/27 16/16/16 25/25/25 
# 0 polygons - 36 triangles

